<?xml version="1.0" encoding="utf-8"?>
<!-- Generator: Adobe Illustrator 25.0.0, SVG Export Plug-In . SVG Version: 6.00 Build 0)  -->
<svg version="1.1" id="Layer_1" xmlns="http://www.w3.org/2000/svg" xmlns:xlink="http://www.w3.org/1999/xlink" x="0px" y="0px"
	 viewBox="0 0 32 32" style="enable-background:new 0 0 32 32;" xml:space="preserve">
<g id="Layer_2_1_">
	<path d="M31,18c-0.7-6-5.8-10.5-11.8-10.4H4L7.2,3C7.6,2.6,7.5,1.9,7,1.6c0,0,0,0,0,0C6.5,1.3,5.9,1.4,5.6,1.8L1.1,8.1
		c-0.2,0.3-0.2,0.7,0,1l4.5,6.3c0.4,0.4,1,0.5,1.4,0.1c0.4-0.3,0.4-0.8,0.2-1.2L4,9.6h15.2c5.1-0.1,9.4,3.8,9.8,8.8
		c0.4,5.2-3.6,9.8-8.8,10.1c-0.2,0-0.4,0-0.6,0H2c-0.6,0-1,0.4-1,1s0.4,1,1,1h17.5c6.4,0,11.5-5.1,11.6-11.5
		C31.1,18.7,31,18.4,31,18z"/>
</g>
</svg>
