<svg width="20" height="20" viewBox="0 0 20 20" fill="none" xmlns="http://www.w3.org/2000/svg">
<path d="M9.9999 5.19274C7.33974 5.19274 5.19287 7.33961 5.19287 9.99977C5.19287 12.6599 7.33974 14.8068 9.9999 14.8068C12.6601 14.8068 14.8069 12.6599 14.8069 9.99977C14.8069 7.33961 12.6601 5.19274 9.9999 5.19274ZM9.9999 13.124C8.27958 13.124 6.87568 11.7201 6.87568 9.99977C6.87568 8.27946 8.27958 6.87555 9.9999 6.87555C11.7202 6.87555 13.1241 8.27946 13.1241 9.99977C13.1241 11.7201 11.7202 13.124 9.9999 13.124ZM15.0038 3.87555C14.3827 3.87555 13.8811 4.37711 13.8811 4.99821C13.8811 5.6193 14.3827 6.12086 15.0038 6.12086C15.6249 6.12086 16.1265 5.62164 16.1265 4.99821C16.1266 4.85073 16.0977 4.70466 16.0414 4.56837C15.985 4.43208 15.9023 4.30824 15.7981 4.20396C15.6938 4.09967 15.5699 4.01698 15.4336 3.96063C15.2974 3.90428 15.1513 3.87537 15.0038 3.87555ZM19.3702 9.99977C19.3702 8.70602 19.3819 7.42399 19.3093 6.13258C19.2366 4.63258 18.8944 3.30133 17.7976 2.20446C16.6983 1.10524 15.3694 0.765394 13.8694 0.692738C12.5757 0.620082 11.2936 0.631801 10.0022 0.631801C8.70849 0.631801 7.42646 0.620082 6.13505 0.692738C4.63505 0.765394 3.3038 1.10758 2.20693 2.20446C1.10771 3.30368 0.767866 4.63258 0.69521 6.13258C0.622554 7.42633 0.634273 8.70836 0.634273 9.99977C0.634273 11.2912 0.622554 12.5756 0.69521 13.867C0.767866 15.367 1.11005 16.6982 2.20693 17.7951C3.30615 18.8943 4.63505 19.2341 6.13505 19.3068C7.4288 19.3795 8.71083 19.3677 10.0022 19.3677C11.296 19.3677 12.578 19.3795 13.8694 19.3068C15.3694 19.2341 16.7007 18.892 17.7976 17.7951C18.8968 16.6959 19.2366 15.367 19.3093 13.867C19.3843 12.5756 19.3702 11.2935 19.3702 9.99977ZM17.3077 15.5263C17.1366 15.9529 16.9304 16.2716 16.5999 16.5998C16.2694 16.9302 15.953 17.1365 15.5265 17.3076C14.2936 17.7974 11.3663 17.6873 9.9999 17.6873C8.63349 17.6873 5.7038 17.7974 4.47099 17.3099C4.04443 17.1388 3.72568 16.9326 3.39755 16.6021C3.06709 16.2716 2.86084 15.9552 2.68974 15.5287C2.20224 14.2935 2.3124 11.3662 2.3124 9.99977C2.3124 8.63336 2.20224 5.70368 2.68974 4.47086C2.86084 4.0443 3.06709 3.72555 3.39755 3.39743C3.72802 3.0693 4.04443 2.86071 4.47099 2.68961C5.7038 2.20211 8.63349 2.31227 9.9999 2.31227C11.3663 2.31227 14.296 2.20211 15.5288 2.68961C15.9554 2.86071 16.2741 3.06696 16.6022 3.39743C16.9327 3.72789 17.139 4.0443 17.3101 4.47086C17.7976 5.70368 17.6874 8.63336 17.6874 9.99977C17.6874 11.3662 17.7976 14.2935 17.3077 15.5263Z" fill="#0B0D0F"/>
</svg>
