<?xml version="1.0" encoding="utf-8"?>
<!-- Generator: Adobe Illustrator 24.3.0, SVG Export Plug-In . SVG Version: 6.00 Build 0)  -->
<svg version="1.0" id="Layer_1" xmlns="http://www.w3.org/2000/svg" xmlns:xlink="http://www.w3.org/1999/xlink" x="0px" y="0px"
	 viewBox="0 0 56.4 56.4" style="enable-background:new 0 0 56.4 56.4;" xml:space="preserve">
<style type="text/css">
	.st0{fill:#0B0D0F;}
</style>
<path class="st0" d="M28.2,17C22,17,17,22,17,28.2s5,11.2,11.2,11.2s11.2-5,11.2-11.2S34.4,17,28.2,17z M28.2,35.5
	c-4,0-7.3-3.3-7.3-7.3s3.3-7.3,7.3-7.3s7.3,3.3,7.3,7.3S32.2,35.5,28.2,35.5z M39.9,13.9c-1.4,0-2.6,1.2-2.6,2.6s1.2,2.6,2.6,2.6
	s2.6-1.2,2.6-2.6c0-0.3-0.1-0.7-0.2-1c-0.1-0.3-0.3-0.6-0.6-0.8c-0.2-0.3-0.5-0.5-0.8-0.6C40.6,14,40.2,13.9,39.9,13.9z M50.1,28.2
	c0-3,0-6-0.1-9c-0.2-3.5-1-6.6-3.5-9.2c-2.6-2.6-5.7-3.4-9.2-3.5c-3-0.2-6-0.1-9-0.1s-6,0-9,0.1c-3.5,0.2-6.6,1-9.2,3.5
	c-2.6,2.6-3.4,5.7-3.5,9.2c-0.2,3-0.1,6-0.1,9s0,6,0.1,9c0.2,3.5,1,6.6,3.5,9.2c2.6,2.6,5.7,3.4,9.2,3.5c3,0.2,6,0.1,9,0.1
	s6,0,9-0.1c3.5-0.2,6.6-1,9.2-3.5c2.6-2.6,3.4-5.7,3.5-9.2C50.1,34.2,50.1,31.2,50.1,28.2z M45.2,41.1c-0.4,1-0.9,1.7-1.7,2.5
	S42,44.9,41,45.3c-2.9,1.1-9.7,0.9-12.9,0.9s-10,0.3-12.9-0.9c-1-0.4-1.7-0.9-2.5-1.7s-1.3-1.5-1.7-2.5c-1-2.9-0.7-9.7-0.7-12.9
	s-0.3-10,0.9-12.9c0.4-1,0.9-1.7,1.7-2.5c0.8-0.8,1.5-1.3,2.5-1.7c2.8-1.1,9.6-0.8,12.8-0.8s10-0.3,12.9,0.9c1,0.4,1.7,0.9,2.5,1.7
	s1.3,1.5,1.7,2.5c1.1,2.8,0.8,9.6,0.8,12.8S46.4,38.2,45.2,41.1z"/>
</svg>
